<?xml version="1.0" encoding="utf-8"?>
<!-- Generator: Adobe Illustrator 23.0.3, SVG Export Plug-In . SVG Version: 6.00 Build 0)  -->
<svg version="1.1" id="Capa_1" xmlns="http://www.w3.org/2000/svg" xmlns:xlink="http://www.w3.org/1999/xlink" x="0px" y="0px"
	 viewBox="0 0 510 510" style="enable-background:new 0 0 510 510;" xml:space="preserve">
<style type="text/css">
	.st0{fill:#F3F3F3;}
</style>
<g>
	<circle class="st0" cx="153" cy="459" r="51"/>
	<circle class="st0" cx="408" cy="459" r="51"/>
	<path class="st0" d="M181,280.5h188.7c20.4,0,35.7-10.2,43.4-25.5l91.8-165.7c5.1-5.1,5.1-7.7,5.1-12.8c0-15.3-10.2-25.5-25.5-25.5
		H107.1L84.2,0H0v51h51l91.8,193.8L107.1,306c-2.5,7.6-5.1,17.8-5.1,25.5c0,28,23,51,51,51h306v-51H163.2c-2.5,0-5.1-2.5-5.1-5.1
		v-2.6L181,280.5z M206,128h49V79h48v49h49v48h-49v49h-48v-49h-49V128z"/>
</g>
</svg>
